# xmcd
#
# Track frame offsets:
#	150
#	16050
#	36600
#	48825
#	61500
#	77625
#	95475
#	114000
#	128850
#	141000
#	157425
#	173325
#	193875
#	206100
#	218775
#	234900
#	252750
#	271275
#	286125
#	298275
#
# Disc length: 4198 seconds
#
# Revision: 1
# Processed by: cddbd v1.5.2PL0 Copyright (c) Steve Scherf et al.
# Submitted via: audiograbber 1.83.01
#
DISCID=1d106414
DTITLE=Country Hit List - Chl9807
DYEAR=1998
DGENRE=Karaoke
TTITLE0=George Strait (Vocal) - I Just Want To Dance With You
TTITLE1=Tim Mcgraw (Vocal) - One Of These Days
TTITLE2=Dixie Chicks (Vocal) - There's Your Trouble
TTITLE3=Clint Black (Vocal) - Shoes You're Wearing
TTITLE4=Terri Clark (Vocal) - Now That I've Found You
TTITLE5=Shania Twain And Bryan White - From This Moment On
TTITLE6=Kenny Chesney (Vocal) - That's Why I'm Here
TTITLE7=Hal Ketchum (Vocal) - I Saw The Light
TTITLE8=Lee Ann Womack (Vocal) - Buckaroo
TTITLE9=Ty Herndon (Vocal) - Man Holdin' On
TTITLE10=George Strait - I Just Want To Dance With You
TTITLE11=Tim Mcgraw - One Of These Days
TTITLE12=Dixie Chicks - There's Your Trouble
TTITLE13=Clint Black - Shoes You're Wearing
TTITLE14=Terri Clark - Now That I've Found You
TTITLE15=Shania Twain And Bryan White - From This Moment On
TTITLE16=Kenny Chesney - That's Why I'm Here
TTITLE17=Hal Ketchum - I Saw The Light
TTITLE18=Lee Ann Womack - Buckaroo
TTITLE19=Ty Henderson - A Man Holdin' On
EXTD=
EXTT0=
EXTT1=
EXTT2=
EXTT3=
EXTT4=
EXTT5=
EXTT6=
EXTT7=
EXTT8=
EXTT9=
EXTT10=
EXTT11=
EXTT12=
EXTT13=
EXTT14=
EXTT15=
EXTT16=
EXTT17=
EXTT18=
EXTT19=
PLAYORDER=
